# xmcd
#
# Track frame offsets:
#	151
#	12032
#	23791
#	39025
#	57375
#	72652
#	94686
#	109124
#	122644
#	137495
#	148649
#	160116
#	174427
#
# Disc length: 2484 seconds
#
# Revision: 1
# Processed by: cddbd v1.4PL0 Copyright (c) Steve Scherf et al.
# Submitted via: audiograbber 1.81.02
#
DISCID=a409b20d
DTITLE=Les Ours - Cansons consignees
DYEAR=2002
DGENRE=
TTITLE0=Chanson consignee
TTITLE1=La porte d'en arriere
TTITLE2=Mon grand cheval noir
TTITLE3=Ne verse pas de larmes
TTITLE4=Sauras-tu
TTITLE5=Long gone lonesome blues
TTITLE6=Ma boheme
TTITLE7=Le soleil s'est pas leve aujourd'hui
TTITLE8=Histoire d'un cheminot
TTITLE9=J'ai un numero
TTITLE10=Le rodeo des Romeos
TTITLE11=Cherie tu me demandes si je t'aime
TTITLE12=Chanson consignee (remix)
EXTD=www.QuebecPop.com
EXTT0=
EXTT1=
EXTT2=
EXTT3=
EXTT4=
EXTT5=
EXTT6=
EXTT7=
EXTT8=
EXTT9=
EXTT10=
EXTT11=
EXTT12=
PLAYORDER=
